<svg width="179" height="179" viewBox="0 0 179 179" fill="none" xmlns="http://www.w3.org/2000/svg">
<circle cx="89.5" cy="89.5" r="89.5" fill="#49494E"/>
<path d="M89.5 63.25C103.998 63.25 115.75 75.0021 115.75 89.5C115.75 91.4084 115.548 93.2669 115.159 95.0597L110.482 90.3794C110.674 85.7718 109.345 81.229 106.699 77.4522C104.052 73.6754 100.237 70.8747 95.8403 69.4823C91.444 68.09 86.7116 68.1835 82.3737 69.7484C78.0358 71.3133 74.3336 74.2626 71.8387 78.141C69.3437 82.0194 68.1948 86.6112 68.5693 91.2075C68.9438 95.8038 70.8208 100.149 73.9105 103.573C77.0003 106.996 81.1311 109.307 85.6651 110.149C90.1991 110.991 94.8843 110.318 98.9972 108.232C99.9991 109.82 101.409 111.11 103.079 111.967C98.9846 114.448 94.2874 115.757 89.5 115.75C75.0021 115.75 63.25 103.998 63.25 89.5C63.25 75.0021 75.0021 63.25 89.5 63.25ZM107.875 95.2015L111.587 98.9132C112.309 99.6355 112.805 100.553 113.014 101.553C113.223 102.553 113.136 103.592 112.762 104.544C112.389 105.495 111.747 106.316 110.914 106.907C110.081 107.499 109.093 107.834 108.072 107.873C107.051 107.911 106.041 107.65 105.166 107.123C104.291 106.596 103.589 105.825 103.145 104.905C102.702 103.984 102.537 102.954 102.67 101.941C102.803 100.928 103.229 99.9764 103.895 99.202L104.163 98.9132L107.875 95.2015ZM89.5 97.375C93.3482 97.375 96.8106 99.0314 99.2125 101.672L96.7319 103.93C94.6581 103.103 92.1723 102.625 89.5 102.625C86.8277 102.625 84.3419 103.105 82.2681 103.927L79.7875 101.669C81.0166 100.315 82.5159 99.2328 84.1887 98.4932C85.8616 97.7535 87.6709 97.3726 89.5 97.375ZM80.3125 84.25C81.3568 84.25 82.3583 84.6648 83.0967 85.4033C83.8352 86.1417 84.25 87.1432 84.25 88.1875C84.25 89.2318 83.8352 90.2333 83.0967 90.9717C82.3583 91.7102 81.3568 92.125 80.3125 92.125C79.2682 92.125 78.2667 91.7102 77.5283 90.9717C76.7898 90.2333 76.375 89.2318 76.375 88.1875C76.375 87.1432 76.7898 86.1417 77.5283 85.4033C78.2667 84.6648 79.2682 84.25 80.3125 84.25ZM98.6875 84.25C99.7318 84.25 100.733 84.6648 101.472 85.4033C102.21 86.1417 102.625 87.1432 102.625 88.1875C102.625 89.2318 102.21 90.2333 101.472 90.9717C100.733 91.7102 99.7318 92.125 98.6875 92.125C97.6432 92.125 96.6417 91.7102 95.9033 90.9717C95.1648 90.2333 94.75 89.2318 94.75 88.1875C94.75 87.1432 95.1648 86.1417 95.9033 85.4033C96.6417 84.6648 97.6432 84.25 98.6875 84.25Z" fill="#E5BDB0"/>
</svg>
